<svg xmlns="http://www.w3.org/2000/svg" xmlns:xlink="http://www.w3.org/1999/xlink" viewBox="0 0 308.24 41.6"><defs><style>.a{fill:url(#a);}.b{fill:url(#b);}.c{fill:none;}.d{clip-path:url(#c);}.e{clip-path:url(#d);}.f{clip-path:url(#e);}.g{clip-path:url(#g);}.h{mask:url(#h);}.i{fill:url(#i);}.j{opacity:0.69;}.k{clip-path:url(#k);}.l{clip-path:url(#l);}.m{mask:url(#m);}.n{fill:url(#n);}.o{fill:#d81927;}.p{fill:#fff;}</style><radialGradient id="a" cx="460.65" cy="-660.17" r="1" gradientTransform="matrix(254.5, 0, 0, -403.45, -117257.64, -266334.91)" gradientUnits="userSpaceOnUse"><stop offset="0" stop-color="#b3b3b3"/><stop offset="0.19" stop-color="#7e7e7e"/><stop offset="0.38" stop-color="#515151"/><stop offset="0.56" stop-color="#2e2e2e"/><stop offset="0.72" stop-color="#151515"/><stop offset="0.88" stop-color="#050505"/><stop offset="1"/></radialGradient><radialGradient id="b" cx="460.65" cy="-660.17" r="1" gradientTransform="matrix(175.26, -401.53, -90.55, -137.5, -139879.23, 94830.79)" gradientUnits="userSpaceOnUse"><stop offset="0" stop-color="gray"/><stop offset="0.03" stop-color="#797979"/><stop offset="0.25" stop-color="#4e4e4e"/><stop offset="0.46" stop-color="#2c2c2c"/><stop offset="0.66" stop-color="#141414"/><stop offset="0.85" stop-color="#050505"/><stop offset="1"/></radialGradient><clipPath id="c"><circle class="c" cx="430.84" cy="494.15" r="192.78"/></clipPath><clipPath id="d"><rect class="c" x="238.06" y="301.37" width="385.56" height="385.56"/></clipPath><clipPath id="e"><rect class="c" x="-21.65" y="12.7" width="679.38" height="731.94"/></clipPath><clipPath id="g"><path class="c" d="M-21.65,12.7v403h.27c140.45,0,254.33-180.36,254.5-403Z"/></clipPath><mask id="h" x="-21.65" y="12.7" width="254.77" height="402.96" maskUnits="userSpaceOnUse"><rect class="a" x="-21.65" y="12.7" width="254.77" height="402.96"/></mask><radialGradient id="i" cx="460.65" cy="-660.17" r="1" gradientTransform="matrix(254.5, 0, 0, -403.45, -117257.65, -266334.91)" gradientUnits="userSpaceOnUse"><stop offset="0" stop-color="#1644bd"/><stop offset="0.15" stop-color="#1644af"/><stop offset="0.47" stop-color="#164496"/><stop offset="0.76" stop-color="#164486"/><stop offset="1" stop-color="#164481"/></radialGradient><clipPath id="k"><rect class="c" x="431.91" y="214.6" width="394.62" height="849.07"/></clipPath><clipPath id="l"><path class="c" d="M454,1040.67c-50-75.94-12.08-317.27,84.71-539s215.8-340,265.8-264,12.08,317.27-84.71,539-215.8,340-265.8,264"/></clipPath><mask id="m" x="153.29" y="-249.77" width="951.86" height="1777.83" maskUnits="userSpaceOnUse"><polygon class="b" points="153.29 735.96 583.54 -249.78 1105.15 542.32 674.9 1528.05 153.29 735.96"/></mask><radialGradient id="n" cx="460.65" cy="-660.17" r="1" gradientTransform="matrix(175.26, -401.53, -90.55, -137.5, -139879.23, 94830.79)" gradientUnits="userSpaceOnUse"><stop offset="0" stop-color="#9b1b43"/><stop offset="1" stop-color="#9b1b43"/></radialGradient></defs><title>1</title><g class="d"><g class="e"><g class="f"><g class="f"><g class="g"><g class="h"><rect class="i" x="-21.65" y="12.7" width="254.77" height="402.96"/></g></g><g class="f"><g class="j"><g class="k"><g class="l"><g class="m"><polygon class="n" points="153.29 735.96 583.54 -249.78 1105.15 542.32 674.9 1528.05 153.29 735.96"/></g></g></g></g></g></g></g></g></g><polygon class="o" points="204.85 15.86 204.85 23.11 203.84 23.82 191.84 32.22 191.84 23.57 197.66 19.49 191.84 15.42 191.84 6.79 191.76 6.79 191.84 6.75 203.84 15.16 204.85 15.86"/><path class="p" d="M96.79,12.8a11.3,11.3,0,0,0-4.42-4.49,13.49,13.49,0,0,0-12.69.07,11.77,11.77,0,0,0-4.52,4.55,13,13,0,0,0-1.65,6.53A12.86,12.86,0,0,0,75.18,26a11.57,11.57,0,0,0,4.74,4.53,15,15,0,0,0,7,1.63c4.24,0,7.52-1.35,9.73-4l.42-.48L92.92,23.5l-.22.22a7.51,7.51,0,0,1-2.49,1.71,8.44,8.44,0,0,1-3.09.54,6.88,6.88,0,0,1-4.18-1.24,5.37,5.37,0,0,1-2-3H98.24l0-.27c.11-1.57.13-1.84.13-1.91A13.85,13.85,0,0,0,96.79,12.8Zm-16,4.26a5.53,5.53,0,0,1,1.73-3.16,5.36,5.36,0,0,1,3.62-1.27,5.25,5.25,0,0,1,3.57,1.29,5.4,5.4,0,0,1,1.73,3.14Z"/><path class="p" d="M114.91,6.76a11.1,11.1,0,0,0-4.44.87,9,9,0,0,0-2.89,1.93V6.76h-7v25.4h7.28V19.91a7,7,0,0,1,1.42-4.77,4.83,4.83,0,0,1,3.81-1.58,4,4,0,0,1,3.24,1.34,6.49,6.49,0,0,1,1.13,4.19V32.16h7.28V18c0-3.67-.92-6.49-2.72-8.38A9.46,9.46,0,0,0,114.91,6.76Z"/><path class="p" d="M140.07,25.89v6.3a12.71,12.71,0,0,1-1.38,0,13.42,13.42,0,0,1-5.56-1.62A12.09,12.09,0,0,1,128.5,26,10.79,10.79,0,0,1,127,21.76c-.18-1.58,0-17.5,0-17.5L134.32,0V6.76h5.74v6.08h-5.74v7.94A6,6,0,0,0,135.79,24a5,5,0,0,0,3.14,1.69,5.14,5.14,0,0,0,.88.07h.2Z"/><polygon class="p" points="149.35 6.76 149.35 32.21 142.26 32.21 142.26 10.99 146.83 8.26 149.34 6.76 149.35 6.76"/><path class="p" d="M50.39,27A12.67,12.67,0,1,1,40.2,6.76a12.58,12.58,0,0,1,10.19,5.18l-4.83,4.64a6.11,6.11,0,1,0,0,5.75Z"/><path class="p" d="M73.3,27A12.67,12.67,0,1,1,63.1,6.76a12.57,12.57,0,0,1,10.19,5.18l-4.82,4.64a6.11,6.11,0,1,0,0,5.75Z"/><path class="p" d="M164.24,13.4a6,6,0,1,1-6.05,6,6.06,6.06,0,0,1,6.05-6m0-6.64a12.7,12.7,0,1,0,12.7,12.69,12.69,12.69,0,0,0-12.7-12.69Z"/><path class="p" d="M20.85,28.84l.28-.26.09-.1.46-.46a12.49,12.49,0,0,0,3.38-6,12.24,12.24,0,0,0,.26-2.27V8.7l-6.56,3.94v7a6,6,0,0,1-.14,1.12,6.08,6.08,0,0,1-1.37,2.77,5.75,5.75,0,0,1-1.48,1.24,6.11,6.11,0,0,1-8.35-2.07,6.38,6.38,0,0,1-.28-5.31,5.69,5.69,0,0,1,3.22-3.25h0l.27-.09.12,0,.44-.14.07,0a6.38,6.38,0,0,1,2-.19,2.12,2.12,0,0,1,.43.06,3.35,3.35,0,0,1,.55.11,1.58,1.58,0,0,1,.37.11,3.66,3.66,0,0,1,.43.15,4,4,0,0,1,.42.2,3.23,3.23,0,0,1,.41.22,7.11,7.11,0,0,1,.65.47l.11.09V7.55a8.82,8.82,0,0,0-2-.64,10.64,10.64,0,0,0-2.56-.19A12.13,12.13,0,0,0,6.19,8.61,13,13,0,0,0,.27,22.28c0,.2.08.39.12.57s.12.45.19.67a12.79,12.79,0,0,0,.91,2.19l.17.33,0,0C5.48,32.81,15.13,34,20.5,29.14Z"/><path class="p" d="M22.92,29.2c-.17.18-.33.36-.52.54a2.44,2.44,0,0,1-.16.19l0,0c-.15.14-.26.26-.38.36l-.06.06c-.12.11-.24.22-.37.32a14.43,14.43,0,0,1-1.89,1.43h5.83V25.73A17.47,17.47,0,0,1,22.92,29.2Z"/><path class="p" d="M244.79,22.39c0,.21-.09.4-.13.58s-.11.43-.19.64a12.67,12.67,0,0,1-.92,2.23c-.05.12-.23.44-.23.44-2,3.6-6.34,5.88-11.21,5.88a12.44,12.44,0,0,1-8.39-3l-.39-.34a3.45,3.45,0,0,1-.28-.26l-.06-.07,0,0-.44-.46a9.82,9.82,0,0,1-2.6-5.51,26.92,26.92,0,0,1-.25-3.38V.23l5,3V19.73a7.57,7.57,0,0,0,.18,1.45,7.7,7.7,0,0,0,1.73,3.5,7.65,7.65,0,0,0,5.87,2.63A7.52,7.52,0,0,0,239,23.58a8,8,0,0,0,.37-6.68,7.18,7.18,0,0,0-4.06-4.14l-.21-.1h0l-.3-.1-.4-.13-.13,0-.14,0a7.19,7.19,0,0,0-1.92-.25h-.53a3.41,3.41,0,0,0-.61.08,6.18,6.18,0,0,0-1.12.28,3.27,3.27,0,0,0-.55.19l-.22.09V7.31A7.42,7.42,0,0,1,230.4,7a10.55,10.55,0,0,1,2-.19h.54a12.1,12.1,0,0,1,5.91,1.9A13.13,13.13,0,0,1,244.79,22.39Z"/><path class="p" d="M244.79,22.39c0,.21-.09.4-.13.58s-.11.43-.19.64a12.67,12.67,0,0,1-.92,2.23c-.05.12-.23.44-.23.44-2,3.6-6.34,5.88-11.21,5.88a12.44,12.44,0,0,1-8.39-3l-.39-.34a3.45,3.45,0,0,1-.28-.26l-.06-.07,0,0-.44-.46a9.82,9.82,0,0,1-2.6-5.51,26.92,26.92,0,0,1-.25-3.38V.23l5,3V19.73a7.57,7.57,0,0,0,.18,1.45,7.7,7.7,0,0,0,1.73,3.5,7.65,7.65,0,0,0,5.87,2.63A7.52,7.52,0,0,0,239,23.58a8,8,0,0,0,.37-6.68,7.18,7.18,0,0,0-4.06-4.14l-.21-.1h0l-.3-.1-.4-.13-.13,0-.14,0a7.19,7.19,0,0,0-1.92-.25h-.53a3.41,3.41,0,0,0-.61.08,6.18,6.18,0,0,0-1.12.28,3.27,3.27,0,0,0-.55.19l-.22.09V7.31A7.42,7.42,0,0,1,230.4,7a10.55,10.55,0,0,1,2-.19h.54a12.1,12.1,0,0,1,5.91,1.9A13.13,13.13,0,0,1,244.79,22.39Z"/><path class="p" d="M267.92,6.73a12.69,12.69,0,1,0,12.69,12.69A12.69,12.69,0,0,0,267.92,6.73Zm0,20.33a7.65,7.65,0,1,1,7.65-7.64A7.65,7.65,0,0,1,267.92,27.06Z"/><path class="p" d="M247.33,3.47l-.09,28.28h5.81V.18Z"/><path class="p" d="M282.93,20.87c0,.11,0,.22.05.34s0,.25.08.37C283,21.34,283,21.1,282.93,20.87Z"/><path class="p" d="M282.93,20.87c0,.11,0,.22.05.34s0,.25.08.37C283,21.34,283,21.1,282.93,20.87Z"/><path class="p" d="M302.5,8.83a13,13,0,0,0-3.35-1.57h0a12.67,12.67,0,0,0-16,9.19l-.11.51a11.7,11.7,0,0,0-.24,2.45c0,.16,0,.31,0,.47s0,.33,0,.48a4.46,4.46,0,0,0,.07.51c0,.23.08.47.13.71,0-.12-.06-.25-.08-.37a12.18,12.18,0,0,0,11.77,10.54,11.37,11.37,0,0,0,7-2.39v1.38a5.24,5.24,0,0,1-.33,2.07l-.07.19A4.19,4.19,0,0,1,300,34.89L300,35c-1.26,1.23-3.16,1.84-5.67,1.84a15.51,15.51,0,0,1-4.78-.78,12.82,12.82,0,0,1-3-1.36l-2.09,4.18a15.62,15.62,0,0,0,4.2,1.77,25.09,25.09,0,0,0,6.42.8c4.27,0,7.56-1.07,9.79-3.2s3.32-5.4,3.32-9.75V18.63A12.75,12.75,0,0,0,302.5,8.83Zm.43,12.29a7.64,7.64,0,1,1-7.44-9.35h0a7.46,7.46,0,0,1,2.18.32,7.66,7.66,0,0,1,5.46,7.32A7,7,0,0,1,302.93,21.12Z"/><path class="p" d="M308.15,6.76h-5.64a12.64,12.64,0,0,1,1.51.88,13.63,13.63,0,0,1,1.8,1.41,14.6,14.6,0,0,1,2.33,2.64Z"/></svg>