<?xml version="1.0" encoding="utf-8"?>
<!-- Generator: Adobe Illustrator 22.0.0, SVG Export Plug-In . SVG Version: 6.00 Build 0)  -->
<svg version="1.1" xmlns="http://www.w3.org/2000/svg" xmlns:xlink="http://www.w3.org/1999/xlink" x="0px" y="0px"
	 viewBox="0 0 153 41.4" style="enable-background:new 0 0 153 41.4;" xml:space="preserve">
<style type="text/css">
	.st0{fill:#F7F7F7;}
	.st1{fill:#45D6CE;}
	.st2{fill:#3BAAE2;}
	.st3{fill:#C6C0FC;}
	.st4{fill:#D81927;}
	.st5{clip-path:url(#Bg1_28_);fill:#0E0B1E;}
	.st6{clip-path:url(#Bg1_28_);}
	.st7{clip-path:url(#SVGID_2_);}
	.st8{clip-path:url(#SVGID_4_);}
	.st9{filter:url(#Adobe_OpacityMaskFilter);}
	.st10{clip-path:url(#SVGID_6_);fill:url(#SVGID_8_);}
	.st11{clip-path:url(#SVGID_6_);mask:url(#SVGID_7_);fill:url(#SVGID_9_);}
	.st12{opacity:0.69;clip-path:url(#SVGID_11_);}
	.st13{clip-path:url(#SVGID_13_);}
	.st14{filter:url(#Adobe_OpacityMaskFilter_1_);}
	.st15{clip-path:url(#SVGID_15_);fill:url(#SVGID_17_);}
	.st16{clip-path:url(#SVGID_15_);mask:url(#SVGID_16_);fill:url(#SVGID_18_);}
	.st17{filter:url(#Adobe_OpacityMaskFilter_2_);}
	.st18{clip-path:url(#SVGID_20_);fill:url(#SVGID_22_);}
	.st19{clip-path:url(#SVGID_20_);mask:url(#SVGID_21_);fill:url(#SVGID_23_);}
	.st20{clip-path:url(#SVGID_25_);}
	.st21{clip-path:url(#SVGID_27_);}
	.st22{filter:url(#Adobe_OpacityMaskFilter_3_);}
	.st23{clip-path:url(#SVGID_29_);fill:url(#SVGID_31_);}
	.st24{clip-path:url(#SVGID_29_);mask:url(#SVGID_30_);fill:url(#SVGID_32_);}
	.st25{opacity:0.69;clip-path:url(#SVGID_34_);}
	.st26{clip-path:url(#SVGID_36_);}
	.st27{filter:url(#Adobe_OpacityMaskFilter_4_);}
	.st28{clip-path:url(#SVGID_38_);fill:url(#SVGID_40_);}
	.st29{clip-path:url(#SVGID_38_);mask:url(#SVGID_39_);fill:url(#SVGID_41_);}
	.st30{filter:url(#Adobe_OpacityMaskFilter_5_);}
	.st31{clip-path:url(#SVGID_43_);fill:url(#SVGID_45_);}
	.st32{clip-path:url(#SVGID_43_);mask:url(#SVGID_44_);fill:url(#SVGID_46_);}
	.st33{fill:#42A2DE;}
	.st34{fill:#0E0B1E;}
	.st35{fill:#DB3934;}
	.st36{fill:#FFFFFF;}
	.st37{fill:#DD1219;}
	.st38{fill:#40CCC8;}
	.st39{clip-path:url(#Bg1_29_);fill:#0E0B1E;}
	.st40{clip-path:url(#Bg1_29_);}
	.st41{opacity:0.49;fill:#323D85;}
	.st42{clip-path:url(#SVGID_48_);}
	.st43{fill:url(#SVGID_49_);}
	.st44{clip-path:url(#SVGID_48_);fill:#25AB3F;}
	.st45{clip-path:url(#SVGID_48_);fill:#117A25;}
	.st46{clip-path:url(#SVGID_48_);fill:#17A632;}
	.st47{clip-path:url(#SVGID_48_);fill:#FFFFFF;}
	.st48{fill:#CCF0FA;}
	.st49{clip-path:url(#SVGID_48_);fill:#CCF0FA;}
	.st50{clip-path:url(#SVGID_48_);fill:#D85F35;}
	.st51{opacity:0.61;clip-path:url(#SVGID_48_);fill:#0B0916;}
	.st52{fill:none;}
	.st53{fill:#2EB4D5;}
	.st54{fill:#B13928;}
	.st55{fill:#EAC43B;}
	.st56{fill:#9B2541;}
	.st57{fill:#B15160;}
	.st58{fill:#1D1868;}
	.st59{opacity:0.29;fill:#C67981;}
	.st60{opacity:0.28;fill:#B04E5D;}
	.st61{fill:#5EA79F;}
	.st62{fill:#D08E94;}
	.st63{fill:#F2DEDF;}
	.st64{fill:#C97F87;}
	.st65{fill:#C57780;}
	.st66{opacity:0.63;fill:#840F18;}
	.st67{opacity:0.83;fill:#FFFFFF;}
	.st68{opacity:0.57;fill:#9B2541;stroke:#FFFFFF;stroke-width:1.4;stroke-linecap:round;stroke-miterlimit:10;}
	.st69{fill:#191466;}
	.st70{fill:none;stroke:#DDA9AD;stroke-linecap:round;stroke-linejoin:round;stroke-miterlimit:10;}
	.st71{fill:none;stroke:#FFFFFF;stroke-width:1.5;stroke-linecap:round;stroke-linejoin:round;stroke-miterlimit:10;}
	.st72{fill:#AB4557;}
	.st73{fill:#D91720;}
	.st74{fill:#1F1B68;}
	.st75{clip-path:url(#SVGID_51_);}
	.st76{clip-path:url(#SVGID_53_);}
	.st77{filter:url(#Adobe_OpacityMaskFilter_6_);}
	.st78{clip-path:url(#SVGID_55_);fill:url(#SVGID_57_);}
	.st79{clip-path:url(#SVGID_55_);mask:url(#SVGID_56_);fill:url(#SVGID_58_);}
	.st80{opacity:0.69;clip-path:url(#SVGID_60_);}
	.st81{clip-path:url(#SVGID_62_);}
	.st82{filter:url(#Adobe_OpacityMaskFilter_7_);}
	.st83{clip-path:url(#SVGID_64_);fill:url(#SVGID_66_);}
	.st84{clip-path:url(#SVGID_64_);mask:url(#SVGID_65_);fill:url(#SVGID_67_);}
	.st85{filter:url(#Adobe_OpacityMaskFilter_8_);}
	.st86{clip-path:url(#SVGID_69_);fill:url(#SVGID_71_);}
	.st87{clip-path:url(#SVGID_69_);mask:url(#SVGID_70_);fill:url(#SVGID_72_);}
	.st88{clip-path:url(#SVGID_74_);}
	.st89{clip-path:url(#SVGID_76_);}
	.st90{filter:url(#Adobe_OpacityMaskFilter_9_);}
	.st91{clip-path:url(#SVGID_78_);fill:url(#SVGID_80_);}
	.st92{clip-path:url(#SVGID_78_);mask:url(#SVGID_79_);fill:url(#SVGID_81_);}
	.st93{opacity:0.69;clip-path:url(#SVGID_83_);}
	.st94{clip-path:url(#SVGID_85_);}
	.st95{filter:url(#Adobe_OpacityMaskFilter_10_);}
	.st96{clip-path:url(#SVGID_87_);fill:url(#SVGID_89_);}
	.st97{clip-path:url(#SVGID_87_);mask:url(#SVGID_88_);fill:url(#SVGID_90_);}
	.st98{filter:url(#Adobe_OpacityMaskFilter_11_);}
	.st99{clip-path:url(#SVGID_92_);fill:url(#SVGID_94_);}
	.st100{clip-path:url(#SVGID_92_);mask:url(#SVGID_93_);fill:url(#SVGID_95_);}
	.st101{display:none;clip-path:url(#Bg1_29_);}
	.st102{display:inline;}
	.st103{clip-path:url(#SVGID_97_);}
	.st104{clip-path:url(#SVGID_99_);}
	.st105{clip-path:url(#SVGID_101_);}
	.st106{opacity:0.31;clip-path:url(#SVGID_105_);}
	.st107{clip-path:url(#SVGID_113_);fill:#B13928;}
	.st108{clip-path:url(#SVGID_113_);fill:#EAC43B;}
	.st109{clip-path:url(#SVGID_113_);fill:#FFFFFF;}
	.st110{clip-path:url(#SVGID_113_);fill:#596289;}
	.st111{clip-path:url(#SVGID_113_);fill:#242D42;}
	.st112{opacity:0.29;clip-path:url(#SVGID_113_);}
	.st113{clip-path:url(#SVGID_115_);fill:#263265;}
	.st114{opacity:0.28;clip-path:url(#SVGID_113_);}
	.st115{clip-path:url(#SVGID_117_);fill:#08154F;}
	.st116{clip-path:url(#SVGID_113_);fill:#23889F;}
	.st117{clip-path:url(#SVGID_113_);fill:#47517D;}
	.st118{clip-path:url(#SVGID_113_);fill:#2E396B;}
	.st119{clip-path:url(#SVGID_113_);fill:#263265;}
	.st120{opacity:0.44;clip-path:url(#SVGID_113_);}
	.st121{clip-path:url(#SVGID_119_);fill:#0A1851;}
	.st122{opacity:0.46;clip-path:url(#SVGID_113_);}
	.st123{clip-path:url(#SVGID_121_);fill:#D8DCEA;}
	.st124{clip-path:url(#SVGID_123_);fill:#D8DCEA;}
	.st125{clip-path:url(#SVGID_125_);fill:#D8DCEA;}
	.st126{clip-path:url(#SVGID_113_);fill:#BABECE;}
	.st127{clip-path:url(#SVGID_113_);fill:#000E4A;}
	.st128{opacity:0.33;clip-path:url(#SVGID_113_);}
	.st129{clip-path:url(#SVGID_127_);fill:#BABECE;}
	.st130{clip-path:url(#SVGID_113_);fill:#D91720;}
	.st131{display:none;}
	.st132{clip-path:url(#Bg1_30_);}
	.st133{clip-path:url(#Bg1_31_);fill:#0E0B1E;}
	.st134{clip-path:url(#Bg1_31_);}
	.st135{clip-path:url(#SVGID_129_);}
	.st136{clip-path:url(#SVGID_131_);}
	.st137{filter:url(#Adobe_OpacityMaskFilter_12_);}
	.st138{clip-path:url(#SVGID_133_);fill:url(#SVGID_135_);}
	.st139{clip-path:url(#SVGID_133_);mask:url(#SVGID_134_);fill:url(#SVGID_136_);}
	.st140{opacity:0.69;clip-path:url(#SVGID_138_);}
	.st141{clip-path:url(#SVGID_140_);}
	.st142{filter:url(#Adobe_OpacityMaskFilter_13_);}
	.st143{clip-path:url(#SVGID_142_);fill:url(#SVGID_144_);}
	.st144{clip-path:url(#SVGID_142_);mask:url(#SVGID_143_);fill:url(#SVGID_145_);}
	.st145{filter:url(#Adobe_OpacityMaskFilter_14_);}
	.st146{clip-path:url(#SVGID_147_);fill:url(#SVGID_149_);}
	.st147{clip-path:url(#SVGID_147_);mask:url(#SVGID_148_);fill:url(#SVGID_150_);}
	.st148{clip-path:url(#SVGID_152_);}
	.st149{clip-path:url(#SVGID_154_);}
	.st150{filter:url(#Adobe_OpacityMaskFilter_15_);}
	.st151{clip-path:url(#SVGID_156_);fill:url(#SVGID_158_);}
	.st152{clip-path:url(#SVGID_156_);mask:url(#SVGID_157_);fill:url(#SVGID_159_);}
	.st153{opacity:0.69;clip-path:url(#SVGID_161_);}
	.st154{clip-path:url(#SVGID_163_);}
	.st155{filter:url(#Adobe_OpacityMaskFilter_16_);}
	.st156{clip-path:url(#SVGID_165_);fill:url(#SVGID_167_);}
	.st157{clip-path:url(#SVGID_165_);mask:url(#SVGID_166_);fill:url(#SVGID_168_);}
	.st158{filter:url(#Adobe_OpacityMaskFilter_17_);}
	.st159{clip-path:url(#SVGID_170_);fill:url(#SVGID_172_);}
	.st160{clip-path:url(#SVGID_170_);mask:url(#SVGID_171_);fill:url(#SVGID_173_);}
	.st161{fill:#62C4E9;}
	.st162{clip-path:url(#Bg1_32_);fill:#0E0B1E;}
	.st163{clip-path:url(#Bg1_32_);}
	.st164{clip-path:url(#SVGID_175_);}
	.st165{clip-path:url(#SVGID_177_);}
	.st166{filter:url(#Adobe_OpacityMaskFilter_18_);}
	.st167{clip-path:url(#SVGID_179_);fill:url(#SVGID_181_);}
	.st168{clip-path:url(#SVGID_179_);mask:url(#SVGID_180_);fill:url(#SVGID_182_);}
	.st169{opacity:0.69;clip-path:url(#SVGID_184_);}
	.st170{clip-path:url(#SVGID_186_);}
	.st171{filter:url(#Adobe_OpacityMaskFilter_19_);}
	.st172{clip-path:url(#SVGID_188_);fill:url(#SVGID_190_);}
	.st173{clip-path:url(#SVGID_188_);mask:url(#SVGID_189_);fill:url(#SVGID_191_);}
	.st174{filter:url(#Adobe_OpacityMaskFilter_20_);}
	.st175{clip-path:url(#SVGID_193_);fill:url(#SVGID_195_);}
	.st176{clip-path:url(#SVGID_193_);mask:url(#SVGID_194_);fill:url(#SVGID_196_);}
	.st177{clip-path:url(#SVGID_198_);}
	.st178{clip-path:url(#SVGID_200_);}
	.st179{filter:url(#Adobe_OpacityMaskFilter_21_);}
	.st180{clip-path:url(#SVGID_202_);fill:url(#SVGID_204_);}
	.st181{clip-path:url(#SVGID_202_);mask:url(#SVGID_203_);fill:url(#SVGID_205_);}
	.st182{opacity:0.69;clip-path:url(#SVGID_207_);}
	.st183{clip-path:url(#SVGID_209_);}
	.st184{filter:url(#Adobe_OpacityMaskFilter_22_);}
	.st185{clip-path:url(#SVGID_211_);fill:url(#SVGID_213_);}
	.st186{clip-path:url(#SVGID_211_);mask:url(#SVGID_212_);fill:url(#SVGID_214_);}
	.st187{filter:url(#Adobe_OpacityMaskFilter_23_);}
	.st188{clip-path:url(#SVGID_216_);fill:url(#SVGID_218_);}
	.st189{clip-path:url(#SVGID_216_);mask:url(#SVGID_217_);fill:url(#SVGID_219_);}
	.st190{display:inline;fill:#D81927;}
	.st191{clip-path:url(#Bg1_33_);fill:#0E0B1E;}
	.st192{clip-path:url(#Bg1_33_);}
	.st193{clip-path:url(#SVGID_221_);}
	.st194{clip-path:url(#SVGID_223_);}
	.st195{filter:url(#Adobe_OpacityMaskFilter_24_);}
	.st196{clip-path:url(#SVGID_225_);fill:url(#SVGID_227_);}
	.st197{clip-path:url(#SVGID_225_);mask:url(#SVGID_226_);fill:url(#SVGID_228_);}
	.st198{opacity:0.69;clip-path:url(#SVGID_230_);}
	.st199{clip-path:url(#SVGID_232_);}
	.st200{filter:url(#Adobe_OpacityMaskFilter_25_);}
	.st201{clip-path:url(#SVGID_234_);fill:url(#SVGID_236_);}
	.st202{clip-path:url(#SVGID_234_);mask:url(#SVGID_235_);fill:url(#SVGID_237_);}
	.st203{filter:url(#Adobe_OpacityMaskFilter_26_);}
	.st204{clip-path:url(#SVGID_239_);fill:url(#SVGID_241_);}
	.st205{clip-path:url(#SVGID_239_);mask:url(#SVGID_240_);fill:url(#SVGID_242_);}
	.st206{clip-path:url(#SVGID_244_);}
	.st207{clip-path:url(#SVGID_246_);}
	.st208{filter:url(#Adobe_OpacityMaskFilter_27_);}
	.st209{clip-path:url(#SVGID_248_);fill:url(#SVGID_250_);}
	.st210{clip-path:url(#SVGID_248_);mask:url(#SVGID_249_);fill:url(#SVGID_251_);}
	.st211{opacity:0.69;clip-path:url(#SVGID_253_);}
	.st212{clip-path:url(#SVGID_255_);}
	.st213{filter:url(#Adobe_OpacityMaskFilter_28_);}
	.st214{clip-path:url(#SVGID_257_);fill:url(#SVGID_259_);}
	.st215{clip-path:url(#SVGID_257_);mask:url(#SVGID_258_);fill:url(#SVGID_260_);}
	.st216{filter:url(#Adobe_OpacityMaskFilter_29_);}
	.st217{clip-path:url(#SVGID_262_);fill:url(#SVGID_264_);}
	.st218{clip-path:url(#SVGID_262_);mask:url(#SVGID_263_);fill:url(#SVGID_265_);}
	.st219{display:none;fill:#FFFFFF;}
	.st220{clip-path:url(#SVGID_267_);}
	.st221{clip-path:url(#Bg1_34_);fill:#0E0B1E;}
	.st222{clip-path:url(#Bg1_34_);}
	.st223{clip-path:url(#SVGID_269_);}
	.st224{clip-path:url(#SVGID_271_);}
	.st225{filter:url(#Adobe_OpacityMaskFilter_30_);}
	.st226{clip-path:url(#SVGID_273_);fill:url(#SVGID_275_);}
	.st227{clip-path:url(#SVGID_273_);mask:url(#SVGID_274_);fill:url(#SVGID_276_);}
	.st228{opacity:0.69;clip-path:url(#SVGID_278_);}
	.st229{clip-path:url(#SVGID_280_);}
	.st230{filter:url(#Adobe_OpacityMaskFilter_31_);}
	.st231{clip-path:url(#SVGID_282_);fill:url(#SVGID_284_);}
	.st232{clip-path:url(#SVGID_282_);mask:url(#SVGID_283_);fill:url(#SVGID_285_);}
	.st233{filter:url(#Adobe_OpacityMaskFilter_32_);}
	.st234{clip-path:url(#SVGID_287_);fill:url(#SVGID_289_);}
	.st235{clip-path:url(#SVGID_287_);mask:url(#SVGID_288_);fill:url(#SVGID_290_);}
	.st236{clip-path:url(#SVGID_292_);}
	.st237{clip-path:url(#SVGID_294_);}
	.st238{filter:url(#Adobe_OpacityMaskFilter_33_);}
	.st239{clip-path:url(#SVGID_296_);fill:url(#SVGID_298_);}
	.st240{clip-path:url(#SVGID_296_);mask:url(#SVGID_297_);fill:url(#SVGID_299_);}
	.st241{opacity:0.69;clip-path:url(#SVGID_301_);}
	.st242{clip-path:url(#SVGID_303_);}
	.st243{filter:url(#Adobe_OpacityMaskFilter_34_);}
	.st244{clip-path:url(#SVGID_305_);fill:url(#SVGID_307_);}
	.st245{clip-path:url(#SVGID_305_);mask:url(#SVGID_306_);fill:url(#SVGID_308_);}
	.st246{filter:url(#Adobe_OpacityMaskFilter_35_);}
	.st247{clip-path:url(#SVGID_310_);fill:url(#SVGID_312_);}
	.st248{clip-path:url(#SVGID_310_);mask:url(#SVGID_311_);fill:url(#SVGID_313_);}
	.st249{clip-path:url(#SVGID_315_);}
	.st250{clip-path:url(#Bg1_35_);fill:#0E0B1E;}
	.st251{clip-path:url(#Bg1_35_);}
	.st252{clip-path:url(#SVGID_317_);}
	.st253{clip-path:url(#SVGID_319_);}
	.st254{filter:url(#Adobe_OpacityMaskFilter_36_);}
	.st255{clip-path:url(#SVGID_321_);fill:url(#SVGID_323_);}
	.st256{clip-path:url(#SVGID_321_);mask:url(#SVGID_322_);fill:url(#SVGID_324_);}
	.st257{opacity:0.69;clip-path:url(#SVGID_326_);}
	.st258{clip-path:url(#SVGID_328_);}
	.st259{filter:url(#Adobe_OpacityMaskFilter_37_);}
	.st260{clip-path:url(#SVGID_330_);fill:url(#SVGID_332_);}
	.st261{clip-path:url(#SVGID_330_);mask:url(#SVGID_331_);fill:url(#SVGID_333_);}
	.st262{filter:url(#Adobe_OpacityMaskFilter_38_);}
	.st263{clip-path:url(#SVGID_335_);fill:url(#SVGID_337_);}
	.st264{clip-path:url(#SVGID_335_);mask:url(#SVGID_336_);fill:url(#SVGID_338_);}
	.st265{clip-path:url(#SVGID_340_);}
	.st266{clip-path:url(#SVGID_342_);}
	.st267{filter:url(#Adobe_OpacityMaskFilter_39_);}
	.st268{clip-path:url(#SVGID_344_);fill:url(#SVGID_346_);}
	.st269{clip-path:url(#SVGID_344_);mask:url(#SVGID_345_);fill:url(#SVGID_347_);}
	.st270{opacity:0.69;clip-path:url(#SVGID_349_);}
	.st271{clip-path:url(#SVGID_351_);}
	.st272{filter:url(#Adobe_OpacityMaskFilter_40_);}
	.st273{clip-path:url(#SVGID_353_);fill:url(#SVGID_355_);}
	.st274{clip-path:url(#SVGID_353_);mask:url(#SVGID_354_);fill:url(#SVGID_356_);}
	.st275{filter:url(#Adobe_OpacityMaskFilter_41_);}
	.st276{clip-path:url(#SVGID_358_);fill:url(#SVGID_360_);}
	.st277{clip-path:url(#SVGID_358_);mask:url(#SVGID_359_);fill:url(#SVGID_361_);}
	.st278{clip-path:url(#SVGID_363_);fill:url(#SVGID_364_);}
	.st279{display:inline;clip-path:url(#SVGID_370_);}
	.st280{clip-path:url(#Bg1_36_);fill:#0E0B1E;}
	.st281{clip-path:url(#Bg1_36_);}
	.st282{clip-path:url(#SVGID_372_);}
	.st283{clip-path:url(#SVGID_374_);}
	.st284{filter:url(#Adobe_OpacityMaskFilter_42_);}
	.st285{clip-path:url(#SVGID_376_);fill:url(#SVGID_378_);}
	.st286{clip-path:url(#SVGID_376_);mask:url(#SVGID_377_);fill:url(#SVGID_379_);}
	.st287{opacity:0.69;clip-path:url(#SVGID_381_);}
	.st288{clip-path:url(#SVGID_383_);}
	.st289{filter:url(#Adobe_OpacityMaskFilter_43_);}
	.st290{clip-path:url(#SVGID_385_);fill:url(#SVGID_387_);}
	.st291{clip-path:url(#SVGID_385_);mask:url(#SVGID_386_);fill:url(#SVGID_388_);}
	.st292{filter:url(#Adobe_OpacityMaskFilter_44_);}
	.st293{clip-path:url(#SVGID_390_);fill:url(#SVGID_392_);}
	.st294{clip-path:url(#SVGID_390_);mask:url(#SVGID_391_);fill:url(#SVGID_393_);}
	.st295{clip-path:url(#SVGID_395_);}
	.st296{clip-path:url(#SVGID_397_);}
	.st297{filter:url(#Adobe_OpacityMaskFilter_45_);}
	.st298{clip-path:url(#SVGID_399_);fill:url(#SVGID_401_);}
	.st299{clip-path:url(#SVGID_399_);mask:url(#SVGID_400_);fill:url(#SVGID_402_);}
	.st300{opacity:0.69;clip-path:url(#SVGID_404_);}
	.st301{clip-path:url(#SVGID_406_);}
	.st302{filter:url(#Adobe_OpacityMaskFilter_46_);}
	.st303{clip-path:url(#SVGID_408_);fill:url(#SVGID_410_);}
	.st304{clip-path:url(#SVGID_408_);mask:url(#SVGID_409_);fill:url(#SVGID_411_);}
	.st305{filter:url(#Adobe_OpacityMaskFilter_47_);}
	.st306{clip-path:url(#SVGID_413_);fill:url(#SVGID_415_);}
	.st307{clip-path:url(#SVGID_413_);mask:url(#SVGID_414_);fill:url(#SVGID_416_);}
	.st308{display:none;fill:#D81927;}
	.st309{clip-path:url(#Bg1_37_);fill:#0E0B1E;}
	.st310{clip-path:url(#Bg1_37_);}
	.st311{clip-path:url(#SVGID_418_);}
	.st312{clip-path:url(#SVGID_420_);}
	.st313{filter:url(#Adobe_OpacityMaskFilter_48_);}
	.st314{clip-path:url(#SVGID_422_);fill:url(#SVGID_424_);}
	.st315{clip-path:url(#SVGID_422_);mask:url(#SVGID_423_);fill:url(#SVGID_425_);}
	.st316{opacity:0.69;clip-path:url(#SVGID_427_);}
	.st317{clip-path:url(#SVGID_429_);}
	.st318{filter:url(#Adobe_OpacityMaskFilter_49_);}
	.st319{clip-path:url(#SVGID_431_);fill:url(#SVGID_433_);}
	.st320{clip-path:url(#SVGID_431_);mask:url(#SVGID_432_);fill:url(#SVGID_434_);}
	.st321{filter:url(#Adobe_OpacityMaskFilter_50_);}
	.st322{clip-path:url(#SVGID_436_);fill:url(#SVGID_438_);}
	.st323{clip-path:url(#SVGID_436_);mask:url(#SVGID_437_);fill:url(#SVGID_439_);}
	.st324{clip-path:url(#SVGID_441_);}
	.st325{clip-path:url(#SVGID_443_);}
	.st326{filter:url(#Adobe_OpacityMaskFilter_51_);}
	.st327{clip-path:url(#SVGID_445_);fill:url(#SVGID_447_);}
	.st328{clip-path:url(#SVGID_445_);mask:url(#SVGID_446_);fill:url(#SVGID_448_);}
	.st329{opacity:0.69;clip-path:url(#SVGID_450_);}
	.st330{clip-path:url(#SVGID_452_);}
	.st331{filter:url(#Adobe_OpacityMaskFilter_52_);}
	.st332{clip-path:url(#SVGID_454_);fill:url(#SVGID_456_);}
	.st333{clip-path:url(#SVGID_454_);mask:url(#SVGID_455_);fill:url(#SVGID_457_);}
	.st334{filter:url(#Adobe_OpacityMaskFilter_53_);}
	.st335{clip-path:url(#SVGID_459_);fill:url(#SVGID_461_);}
	.st336{clip-path:url(#SVGID_459_);mask:url(#SVGID_460_);fill:url(#SVGID_462_);}
	.st337{clip-path:url(#SVGID_464_);}
	.st338{clip-path:url(#Bg1_38_);fill:#0E0B1E;}
	.st339{clip-path:url(#Bg1_38_);}
	.st340{clip-path:url(#SVGID_466_);}
	.st341{clip-path:url(#SVGID_468_);}
	.st342{filter:url(#Adobe_OpacityMaskFilter_54_);}
	.st343{clip-path:url(#SVGID_470_);fill:url(#SVGID_472_);}
	.st344{clip-path:url(#SVGID_470_);mask:url(#SVGID_471_);fill:url(#SVGID_473_);}
	.st345{opacity:0.69;clip-path:url(#SVGID_475_);}
	.st346{clip-path:url(#SVGID_477_);}
	.st347{filter:url(#Adobe_OpacityMaskFilter_55_);}
	.st348{clip-path:url(#SVGID_479_);fill:url(#SVGID_481_);}
	.st349{clip-path:url(#SVGID_479_);mask:url(#SVGID_480_);fill:url(#SVGID_482_);}
	.st350{filter:url(#Adobe_OpacityMaskFilter_56_);}
	.st351{clip-path:url(#SVGID_484_);fill:url(#SVGID_486_);}
	.st352{clip-path:url(#SVGID_484_);mask:url(#SVGID_485_);fill:url(#SVGID_487_);}
	.st353{clip-path:url(#SVGID_489_);}
	.st354{clip-path:url(#SVGID_491_);}
	.st355{filter:url(#Adobe_OpacityMaskFilter_57_);}
	.st356{clip-path:url(#SVGID_493_);fill:url(#SVGID_495_);}
	.st357{clip-path:url(#SVGID_493_);mask:url(#SVGID_494_);fill:url(#SVGID_496_);}
	.st358{opacity:0.69;clip-path:url(#SVGID_498_);}
	.st359{clip-path:url(#SVGID_500_);}
	.st360{filter:url(#Adobe_OpacityMaskFilter_58_);}
	.st361{clip-path:url(#SVGID_502_);fill:url(#SVGID_504_);}
	.st362{clip-path:url(#SVGID_502_);mask:url(#SVGID_503_);fill:url(#SVGID_505_);}
	.st363{filter:url(#Adobe_OpacityMaskFilter_59_);}
	.st364{clip-path:url(#SVGID_507_);fill:url(#SVGID_509_);}
	.st365{clip-path:url(#SVGID_507_);mask:url(#SVGID_508_);fill:url(#SVGID_510_);}
	.st366{clip-path:url(#Bg1_39_);fill:#0E0B1E;}
	.st367{clip-path:url(#Bg1_39_);}
	.st368{clip-path:url(#SVGID_512_);}
	.st369{fill:url(#SVGID_513_);}
	.st370{clip-path:url(#SVGID_512_);fill:#25AB3F;}
	.st371{clip-path:url(#SVGID_512_);fill:#117A25;}
	.st372{clip-path:url(#SVGID_512_);fill:#17A632;}
	.st373{clip-path:url(#SVGID_512_);fill:#FFFFFF;}
	.st374{clip-path:url(#SVGID_512_);fill:#CCF0FA;}
	.st375{clip-path:url(#SVGID_512_);fill:#D85F35;}
	.st376{opacity:0.61;clip-path:url(#SVGID_512_);fill:#0B0916;}
	.st377{clip-path:url(#SVGID_515_);}
	.st378{clip-path:url(#SVGID_517_);}
	.st379{filter:url(#Adobe_OpacityMaskFilter_60_);}
	.st380{clip-path:url(#SVGID_519_);fill:url(#SVGID_521_);}
	.st381{clip-path:url(#SVGID_519_);mask:url(#SVGID_520_);fill:url(#SVGID_522_);}
	.st382{opacity:0.69;clip-path:url(#SVGID_524_);}
	.st383{clip-path:url(#SVGID_526_);}
	.st384{filter:url(#Adobe_OpacityMaskFilter_61_);}
	.st385{clip-path:url(#SVGID_528_);fill:url(#SVGID_530_);}
	.st386{clip-path:url(#SVGID_528_);mask:url(#SVGID_529_);fill:url(#SVGID_531_);}
	.st387{filter:url(#Adobe_OpacityMaskFilter_62_);}
	.st388{clip-path:url(#SVGID_533_);fill:url(#SVGID_535_);}
	.st389{clip-path:url(#SVGID_533_);mask:url(#SVGID_534_);fill:url(#SVGID_536_);}
	.st390{clip-path:url(#SVGID_538_);}
	.st391{clip-path:url(#SVGID_540_);}
	.st392{filter:url(#Adobe_OpacityMaskFilter_63_);}
	.st393{clip-path:url(#SVGID_542_);fill:url(#SVGID_544_);}
	.st394{clip-path:url(#SVGID_542_);mask:url(#SVGID_543_);fill:url(#SVGID_545_);}
	.st395{opacity:0.69;clip-path:url(#SVGID_547_);}
	.st396{clip-path:url(#SVGID_549_);}
	.st397{filter:url(#Adobe_OpacityMaskFilter_64_);}
	.st398{clip-path:url(#SVGID_551_);fill:url(#SVGID_553_);}
	.st399{clip-path:url(#SVGID_551_);mask:url(#SVGID_552_);fill:url(#SVGID_554_);}
	.st400{filter:url(#Adobe_OpacityMaskFilter_65_);}
	.st401{clip-path:url(#SVGID_556_);fill:url(#SVGID_558_);}
	.st402{clip-path:url(#SVGID_556_);mask:url(#SVGID_557_);fill:url(#SVGID_559_);}
	.st403{display:none;clip-path:url(#Bg1_39_);}
	.st404{clip-path:url(#SVGID_561_);}
	.st405{clip-path:url(#SVGID_563_);}
	.st406{clip-path:url(#SVGID_565_);}
	.st407{opacity:0.31;clip-path:url(#SVGID_569_);}
	.st408{clip-path:url(#SVGID_577_);fill:#B13928;}
	.st409{clip-path:url(#SVGID_577_);fill:#EAC43B;}
	.st410{clip-path:url(#SVGID_577_);fill:#FFFFFF;}
	.st411{clip-path:url(#SVGID_577_);fill:#596289;}
	.st412{clip-path:url(#SVGID_577_);fill:#242D42;}
	.st413{opacity:0.29;clip-path:url(#SVGID_577_);}
	.st414{clip-path:url(#SVGID_579_);fill:#263265;}
	.st415{opacity:0.28;clip-path:url(#SVGID_577_);}
	.st416{clip-path:url(#SVGID_581_);fill:#08154F;}
	.st417{clip-path:url(#SVGID_577_);fill:#23889F;}
	.st418{clip-path:url(#SVGID_577_);fill:#47517D;}
	.st419{clip-path:url(#SVGID_577_);fill:#2E396B;}
	.st420{clip-path:url(#SVGID_577_);fill:#263265;}
	.st421{opacity:0.44;clip-path:url(#SVGID_577_);}
	.st422{clip-path:url(#SVGID_583_);fill:#0A1851;}
	.st423{opacity:0.46;clip-path:url(#SVGID_577_);}
	.st424{clip-path:url(#SVGID_585_);fill:#D8DCEA;}
	.st425{clip-path:url(#SVGID_587_);fill:#D8DCEA;}
	.st426{clip-path:url(#SVGID_589_);fill:#D8DCEA;}
	.st427{clip-path:url(#SVGID_577_);fill:#BABECE;}
	.st428{clip-path:url(#SVGID_577_);fill:#000E4A;}
	.st429{opacity:0.33;clip-path:url(#SVGID_577_);}
	.st430{clip-path:url(#SVGID_591_);fill:#BABECE;}
	.st431{clip-path:url(#SVGID_577_);fill:#D91720;}
	.st432{display:none;fill:#1C1C1C;}
</style>
<g id="Layer_1">
</g>
<g id="brand-logo-sm-white">
</g>
<g id="IG">
</g>
<g id="logo_x5F_full_x5F_xl_x5F_web_x5F_header">
</g>
<g id="logo_x5F_sm_x5F_web_x5F_header">
</g>
<g id="avatarDev_x5F_sm_x5F_black_x5F_rounded">
</g>
<g id="avatar_x5F_sm_x5F_red_x5F_blue_x5F_rounded">
</g>
<g id="avatarDesign_x5F_sm_x5F_a_x5F_rounded">
</g>
<g id="avatarDev_x5F_sm_x5F_square">
</g>
<g id="email_x5F_brand">
</g>
<g id="avatar_x5F_full_x5F_md_x5F_darkblue_x5F_square">
</g>
<g id="avatar_x5F_full_x5F_sm_x5F_darkblue_x5F_square">
</g>
<g id="avatar_x5F_sm_x5F_darkblue_x5F_rounded">
	<g id="Bg1-2_9_">
		<defs>
			<rect id="Bg1_18_" x="329.8" y="240.1" width="385.6" height="385.6"/>
		</defs>
		<clipPath id="Bg1_28_">
			<use xlink:href="#Bg1_18_"  style="overflow:visible;"/>
		</clipPath>
		<g id="gLOW_12_" class="st6">
			<g>
				<defs>
					<rect id="SVGID_243_" x="70.1" y="-48.5" width="679.4" height="731.9"/>
				</defs>
				<clipPath id="SVGID_2_">
					<use xlink:href="#SVGID_243_"  style="overflow:visible;"/>
				</clipPath>
				<g class="st7">
					<defs>
						<rect id="SVGID_245_" x="70.1" y="-48.5" width="679.4" height="731.9"/>
					</defs>
					<clipPath id="SVGID_4_">
						<use xlink:href="#SVGID_245_"  style="overflow:visible;"/>
					</clipPath>
					<g class="st8">
						<defs>
							<path id="SVGID_247_" d="M70.1-48.5v403c0.1,0,0.2,0,0.3,0c140.5,0,254.3-180.4,254.5-403H70.1z"/>
						</defs>
						<clipPath id="SVGID_6_">
							<use xlink:href="#SVGID_247_"  style="overflow:visible;"/>
						</clipPath>
						<defs>
							<filter id="Adobe_OpacityMaskFilter" filterUnits="userSpaceOnUse" x="70.1" y="-48.5" width="254.8" height="403">
								<feColorMatrix  type="matrix" values="1 0 0 0 0  0 1 0 0 0  0 0 1 0 0  0 0 0 1 0"/>
							</filter>
						</defs>
						<mask maskUnits="userSpaceOnUse" x="70.1" y="-48.5" width="254.8" height="403" id="SVGID_7_">
							<g class="st9">
								
									<radialGradient id="SVGID_8_" cx="145" cy="-721.4004" r="1" gradientTransform="matrix(254.5028 0 0 -403.4507 -36832.5352 -291098.5625)" gradientUnits="userSpaceOnUse">
									<stop  offset="0" style="stop-color:#B3B3B3"/>
									<stop  offset="0.1862" style="stop-color:#7E7E7E"/>
									<stop  offset="0.3739" style="stop-color:#515151"/>
									<stop  offset="0.5547" style="stop-color:#2E2E2E"/>
									<stop  offset="0.7239" style="stop-color:#151515"/>
									<stop  offset="0.877" style="stop-color:#050505"/>
									<stop  offset="1" style="stop-color:#000000"/>
								</radialGradient>
								<rect x="70.1" y="-48.5" class="st10" width="254.8" height="403"/>
							</g>
						</mask>
						
							<radialGradient id="SVGID_9_" cx="145" cy="-721.4004" r="1" gradientTransform="matrix(254.5029 0 0 -403.4507 -36832.5391 -291098.5625)" gradientUnits="userSpaceOnUse">
							<stop  offset="0" style="stop-color:#1644BD"/>
							<stop  offset="0.1503" style="stop-color:#1644AF"/>
							<stop  offset="0.4715" style="stop-color:#164496"/>
							<stop  offset="0.7641" style="stop-color:#164486"/>
							<stop  offset="1" style="stop-color:#164481"/>
						</radialGradient>
						<rect x="70.1" y="-48.5" class="st11" width="254.8" height="403"/>
					</g>
					<g class="st8">
						<defs>
							<rect id="SVGID_252_" x="70.1" y="-48.5" width="679.4" height="731.9"/>
						</defs>
						<clipPath id="SVGID_11_">
							<use xlink:href="#SVGID_252_"  style="overflow:visible;"/>
						</clipPath>
					</g>
				</g>
			</g>
		</g>
	</g>
</g>
<g id="avatar_x5F_sm_x5F_darkblue_x5F_rounded_x5F_Fb">
	<g>
		<defs>
			<circle id="SVGID_266_" cx="115.2" cy="432.9" r="192.8"/>
		</defs>
		<clipPath id="SVGID_13_">
			<use xlink:href="#SVGID_266_"  style="overflow:visible;"/>
		</clipPath>
		<g id="Bg1-2_11_" class="st13">
			<defs>
				<rect id="Bg1_22_" x="-77.6" y="240.1" width="385.6" height="385.6"/>
			</defs>
			<clipPath id="Bg1_29_">
				<use xlink:href="#Bg1_22_"  style="overflow:visible;"/>
			</clipPath>
			<g id="gLOW_16_" class="st40">
				<g>
					<defs>
						<rect id="SVGID_291_" x="-337.3" y="-48.5" width="679.4" height="731.9"/>
					</defs>
					<clipPath id="SVGID_15_">
						<use xlink:href="#SVGID_291_"  style="overflow:visible;"/>
					</clipPath>
					<g style="clip-path:url(#SVGID_15_);">
						<defs>
							<rect id="SVGID_293_" x="-337.3" y="-48.5" width="679.4" height="731.9"/>
						</defs>
						<clipPath id="SVGID_16_">
							<use xlink:href="#SVGID_293_"  style="overflow:visible;"/>
						</clipPath>
						<g style="clip-path:url(#SVGID_16_);">
							<defs>
								<rect id="SVGID_300_" x="-337.3" y="-48.5" width="679.4" height="731.9"/>
							</defs>
							<clipPath id="SVGID_17_">
								<use xlink:href="#SVGID_300_"  style="overflow:visible;"/>
							</clipPath>
							<g style="opacity:0.69;clip-path:url(#SVGID_17_);">
								<g>
									<defs>
										<rect id="SVGID_302_" x="116.3" y="153.4" width="394.6" height="849.1"/>
									</defs>
									<clipPath id="SVGID_18_">
										<use xlink:href="#SVGID_302_"  style="overflow:visible;"/>
									</clipPath>
									<g style="clip-path:url(#SVGID_18_);">
										<defs>
											<path id="SVGID_304_" d="M138.3,979.4c-50-75.9-12.1-317.3,84.7-539s215.8-340,265.8-264c50,75.9,12.1,317.3-84.7,539
												C307.3,937.2,188.3,1055.4,138.3,979.4"/>
										</defs>
										<clipPath id="SVGID_20_">
											<use xlink:href="#SVGID_304_"  style="overflow:visible;"/>
										</clipPath>
										<defs>
											
												<filter id="Adobe_OpacityMaskFilter_1_" filterUnits="userSpaceOnUse" x="-162.4" y="-311" width="951.9" height="1777.8">
												<feColorMatrix  type="matrix" values="1 0 0 0 0  0 1 0 0 0  0 0 1 0 0  0 0 0 1 0"/>
											</filter>
										</defs>
										<mask maskUnits="userSpaceOnUse" x="-162.4" y="-311" width="951.9" height="1777.8" id="SVGID_21_">
											<g class="st14">
												
													<radialGradient id="SVGID_22_" cx="145" cy="-721.4004" r="1" gradientTransform="matrix(175.2583 -401.5305 -90.546 -137.4984 -90418.8438 -40391.5469)" gradientUnits="userSpaceOnUse">
													<stop  offset="0" style="stop-color:#808080"/>
													<stop  offset="3.072965e-02" style="stop-color:#797979"/>
													<stop  offset="0.2492" style="stop-color:#4E4E4E"/>
													<stop  offset="0.4609" style="stop-color:#2C2C2C"/>
													<stop  offset="0.6615" style="stop-color:#141414"/>
													<stop  offset="0.8461" style="stop-color:#050505"/>
													<stop  offset="1" style="stop-color:#000000"/>
												</radialGradient>
												<polygon class="st18" points="-162.4,674.7 267.9,-311 789.5,481.1 359.2,1466.8 												"/>
											</g>
										</mask>
										
											<radialGradient id="SVGID_23_" cx="145" cy="-721.4004" r="1" gradientTransform="matrix(175.2583 -401.5305 -90.546 -137.4984 -90418.8438 -40391.5469)" gradientUnits="userSpaceOnUse">
											<stop  offset="0" style="stop-color:#9B1B43"/>
											<stop  offset="1" style="stop-color:#9B1B43"/>
										</radialGradient>
										<polygon class="st19" points="-162.4,674.7 267.9,-311 789.5,481.1 359.2,1466.8 										"/>
									</g>
								</g>
							</g>
						</g>
						<g style="clip-path:url(#SVGID_16_);">
							<defs>
								<path id="SVGID_309_" d="M59.4-48.5C69.5,193.7,186.8,393,342.1,447.5V-48.5H59.4z"/>
							</defs>
							<clipPath id="SVGID_25_">
								<use xlink:href="#SVGID_309_"  style="overflow:visible;"/>
							</clipPath>
							<defs>
								<filter id="Adobe_OpacityMaskFilter_2_" filterUnits="userSpaceOnUse" x="59.4" y="-48.5" width="282.7" height="496.1">
									<feColorMatrix  type="matrix" values="1 0 0 0 0  0 1 0 0 0  0 0 1 0 0  0 0 0 1 0"/>
								</filter>
							</defs>
							<mask maskUnits="userSpaceOnUse" x="59.4" y="-48.5" width="282.7" height="496.1" id="SVGID_27_">
								<g class="st17">
									
										<radialGradient id="SVGID_29_" cx="145" cy="-721.4004" r="1" gradientTransform="matrix(369.1486 0 0 -544.9986 -53098.7383 -393244.9063)" gradientUnits="userSpaceOnUse">
										<stop  offset="0" style="stop-color:#B3B3B3"/>
										<stop  offset="0.1862" style="stop-color:#7E7E7E"/>
										<stop  offset="0.3739" style="stop-color:#515151"/>
										<stop  offset="0.5547" style="stop-color:#2E2E2E"/>
										<stop  offset="0.7239" style="stop-color:#151515"/>
										<stop  offset="0.877" style="stop-color:#050505"/>
										<stop  offset="1" style="stop-color:#000000"/>
									</radialGradient>
									<rect x="59.4" y="-48.5" style="clip-path:url(#SVGID_25_);fill:url(#SVGID_29_);" width="282.7" height="496.1"/>
								</g>
							</mask>
							
								<radialGradient id="SVGID_30_" cx="145" cy="-721.4004" r="1" gradientTransform="matrix(369.1486 0 0 -544.9986 -53098.7383 -393244.9063)" gradientUnits="userSpaceOnUse">
								<stop  offset="0" style="stop-color:#1644BD"/>
								<stop  offset="0.1503" style="stop-color:#1644AF"/>
								<stop  offset="0.4715" style="stop-color:#164496"/>
								<stop  offset="0.7641" style="stop-color:#164486"/>
								<stop  offset="1" style="stop-color:#164481"/>
							</radialGradient>
							
								<rect x="59.4" y="-48.5" style="clip-path:url(#SVGID_25_);mask:url(#SVGID_27_);fill:url(#SVGID_30_);" width="282.7" height="496.1"/>
						</g>
					</g>
				</g>
			</g>
		</g>
	</g>
</g>
<g id="lgbt">
</g>
<g id="favicon">
</g>
<g id="avatar_x5F_full_x5F_xl_x5F_darkblue_x5F_square">
</g>
<g id="avatar_x5F_full_x5F_xl_x5F_darkblue_x5F_rounded">
	<g>
		<defs>
			<circle id="SVGID_463_" cx="522.6" cy="-5.5" r="192.8"/>
		</defs>
		<clipPath id="SVGID_31_">
			<use xlink:href="#SVGID_463_"  style="overflow:visible;"/>
		</clipPath>
		<g id="Bg1-2_3_" style="clip-path:url(#SVGID_31_);">
			<defs>
				<rect id="Bg1_9_" x="329.8" y="-198.3" width="385.6" height="385.6"/>
			</defs>
			<clipPath id="Bg1_30_">
				<use xlink:href="#Bg1_9_"  style="overflow:visible;"/>
			</clipPath>
			<g id="gLOW_8_" class="st132">
				<g>
					<defs>
						<rect id="SVGID_488_" x="70.1" y="-487" width="679.4" height="731.9"/>
					</defs>
					<clipPath id="SVGID_32_">
						<use xlink:href="#SVGID_488_"  style="overflow:visible;"/>
					</clipPath>
					<g style="clip-path:url(#SVGID_32_);">
						<defs>
							<rect id="SVGID_490_" x="70.1" y="-487" width="679.4" height="731.9"/>
						</defs>
						<clipPath id="SVGID_34_">
							<use xlink:href="#SVGID_490_"  style="overflow:visible;"/>
						</clipPath>
						<g style="clip-path:url(#SVGID_34_);">
							<defs>
								<rect id="SVGID_497_" x="70.1" y="-487" width="679.4" height="731.9"/>
							</defs>
							<clipPath id="SVGID_36_">
								<use xlink:href="#SVGID_497_"  style="overflow:visible;"/>
							</clipPath>
						</g>
					</g>
				</g>
			</g>
		</g>
	</g>
</g>
<g id="Cover_Photo">
</g>
<g id="brand-logo-image-md">
</g>
<g id="brand-logo-image-md-darkblue">
</g>
<g id="brand-logo-image-sm">
	<rect id="bg_1_" x="-0.2" y="-0.2" class="st432" width="153.3" height="41.9"/>
</g>
<g id="brand-logo-image-sm-darkblue">
	<g>
		<polygon class="st4" points="51.5,15.6 51.5,22.9 50.5,23.6 38.5,32 38.5,23.4 44.3,19.3 38.5,15.2 38.5,6.6 38.4,6.6 38.5,6.5 
			50.5,14.9 		"/>
		<g>
			<path class="st34" d="M20.8,28.7c0.1-0.1,0.2-0.2,0.3-0.3c0,0,0.1-0.1,0.1-0.1c0.2-0.2,0.3-0.3,0.5-0.5c1.6-1.7,2.9-3.7,3.4-6
				c0.2-0.7,0.2-1.5,0.3-2.3V8.6l-6.6,3.9v3.3l0,3.4v0.3c0,0.4-0.1,0.8-0.1,1.1c-0.2,1-0.7,2-1.4,2.8c-0.4,0.5-0.9,0.9-1.5,1.2
				c-2.9,1.7-6.7,0.8-8.4-2.1c-0.9-1.7-0.9-3.7-0.3-5.3c0.6-1.6,1.7-2.6,3.2-3.2h0c0.1,0,0.2-0.1,0.3-0.1c0,0,0.1,0,0.1,0
				c0.1-0.1,0.3-0.1,0.4-0.1c0,0,0.1,0,0.1,0c0.7-0.2,1.3-0.2,2-0.2c0.1,0,0.3,0,0.4,0.1c0.2,0,0.4,0.1,0.5,0.1
				c0.1,0,0.2,0.1,0.4,0.1c0.1,0,0.3,0.1,0.4,0.2c0.1,0.1,0.3,0.1,0.4,0.2c0.1,0.1,0.3,0.1,0.4,0.2c0.2,0.1,0.4,0.3,0.7,0.5
				c0,0,0.1,0.1,0.1,0.1V7.4c-0.5-0.2-1.1-0.5-2-0.6c-0.9-0.2-1.7-0.2-2.6-0.2C9.2,6.7,7.2,7.8,6.2,8.5c-4.7,2.8-7,8.4-5.9,13.7
				c0,0.2,0.1,0.4,0.1,0.6c0.1,0.2,0.1,0.4,0.2,0.7c0.2,0.8,0.5,1.5,0.9,2.2c0.1,0.1,0.1,0.2,0.2,0.3c0,0,0,0,0,0
				c3.8,6.7,13.4,7.9,18.8,3.1C20.6,28.9,20.7,28.8,20.8,28.7z"/>
			<path class="st34" d="M22.9,29.1c-0.2,0.2-0.3,0.4-0.5,0.5c0,0.1-0.2,0.2-0.2,0.2l0,0c-0.2,0.1-0.3,0.3-0.4,0.4l-0.1,0.1
				c-0.1,0.1-0.2,0.2-0.4,0.3c-0.6,0.5-1.2,1-1.9,1.4h5.8v-6.4C24.7,26.8,23.9,28,22.9,29.1z"/>
		</g>
		<g>
			<path class="st34" d="M89.7,22.3c0,0.2-0.1,0.4-0.1,0.6c-0.1,0.2-0.1,0.4-0.2,0.6c-0.2,0.7-0.5,1.5-0.9,2.2
				c-0.1,0.1-0.2,0.4-0.2,0.4c-2,3.6-6.3,5.9-11.2,5.9c-3.3,0-6.3-1.1-8.4-3l-0.4-0.3c-0.1-0.1-0.2-0.2-0.3-0.3l-0.1-0.1l0,0
				c-0.2-0.2-0.3-0.3-0.4-0.5c-1.6-1.7-2.1-3.2-2.6-5.5c-0.2-0.8-0.2-2.3-0.2-3.4V0.1l5,3v16.5c0,0.5,0.1,1,0.2,1.5
				c0.3,1.3,0.9,2.5,1.7,3.5c0.5,0.6,1.1,1.1,1.9,1.6c1.2,0.7,2.6,1.1,4,1.1c2.8,0,5.3-1.4,6.6-3.7c1.1-1.9,1.2-4.4,0.4-6.7
				c-0.7-1.8-2-3.2-4.1-4.1L80,12.5h0l-0.3-0.1c-0.1,0-0.2-0.1-0.4-0.1l-0.1,0c-0.1,0-0.1,0-0.1,0c-0.7-0.2-1.3-0.2-1.9-0.2
				c-0.2,0-0.3,0-0.5,0c-0.2,0-0.4,0-0.6,0.1c-0.2,0-0.4,0.1-0.6,0.1c-0.2,0-0.3,0.1-0.5,0.1c-0.2,0-0.4,0.1-0.6,0.2
				c-0.1,0-0.1,0.1-0.2,0.1V7.2c0.4-0.1,0.8-0.3,1.3-0.4c0.7-0.1,1.3-0.2,2-0.2c0.2,0,0.4,0,0.5,0c3,0.1,5,1.4,5.9,1.9
				C88.4,11.3,90.8,17,89.7,22.3z"/>
			<path class="st34" d="M89.7,22.3c0,0.2-0.1,0.4-0.1,0.6c-0.1,0.2-0.1,0.4-0.2,0.6c-0.2,0.7-0.5,1.5-0.9,2.2
				c-0.1,0.1-0.2,0.4-0.2,0.4c-2,3.6-6.3,5.9-11.2,5.9c-3.3,0-6.3-1.1-8.4-3l-0.4-0.3c-0.1-0.1-0.2-0.2-0.3-0.3l-0.1-0.1l0,0
				c-0.2-0.2-0.3-0.3-0.4-0.5c-1.6-1.7-2.1-3.2-2.6-5.5c-0.2-0.8-0.2-2.3-0.2-3.4V0.1l5,3v16.5c0,0.5,0.1,1,0.2,1.5
				c0.3,1.3,0.9,2.5,1.7,3.5c0.5,0.6,1.1,1.1,1.9,1.6c1.2,0.7,2.6,1.1,4,1.1c2.8,0,5.3-1.4,6.6-3.7c1.1-1.9,1.2-4.4,0.4-6.7
				c-0.7-1.8-2-3.2-4.1-4.1L80,12.5h0l-0.3-0.1c-0.1,0-0.2-0.1-0.4-0.1l-0.1,0c-0.1,0-0.1,0-0.1,0c-0.7-0.2-1.3-0.2-1.9-0.2
				c-0.2,0-0.3,0-0.5,0c-0.2,0-0.4,0-0.6,0.1c-0.2,0-0.4,0.1-0.6,0.1c-0.2,0-0.3,0.1-0.5,0.1c-0.2,0-0.4,0.1-0.6,0.2
				c-0.1,0-0.1,0.1-0.2,0.1V7.2c0.4-0.1,0.8-0.3,1.3-0.4c0.7-0.1,1.3-0.2,2-0.2c0.2,0,0.4,0,0.5,0c3,0.1,5,1.4,5.9,1.9
				C88.4,11.3,90.8,17,89.7,22.3z"/>
		</g>
		<path class="st34" d="M112.9,6.6c-7,0-12.7,5.7-12.7,12.7c0,7,5.7,12.7,12.7,12.7c7,0,12.7-5.7,12.7-12.7
			C125.5,12.3,119.8,6.6,112.9,6.6z M112.9,26.9c-4.2,0-7.6-3.4-7.6-7.6c0-4.2,3.4-7.6,7.6-7.6c4.2,0,7.6,3.4,7.6,7.6
			C120.5,23.5,117.1,26.9,112.9,26.9z"/>
		<path class="st34" d="M92.3,3.3l-0.1,28.3H98V0.1L92.3,3.3z"/>
		<path class="st34" d="M127.9,20.7c0,0.1,0,0.2,0,0.3c0,0.1,0,0.3,0.1,0.4C127.9,21.2,127.9,21,127.9,20.7z"/>
		<path class="st34" d="M127.9,20.7c0,0.1,0,0.2,0,0.3c0,0.1,0,0.3,0.1,0.4C127.9,21.2,127.9,21,127.9,20.7z"/>
		<path class="st34" d="M147.4,8.7c-1-0.7-2.2-1.2-3.3-1.6h0c-1.2-0.4-2.4-0.5-3.6-0.5c-5.9,0-11,4-12.3,9.7l-0.1,0.5
			c-0.2,0.8-0.2,1.6-0.2,2.5c0,0.2,0,0.3,0,0.5c0,0.2,0,0.3,0,0.5c0,0.2,0,0.3,0.1,0.5c0,0.2,0.1,0.5,0.1,0.7c0-0.1-0.1-0.3-0.1-0.4
			c1,6,5.9,10.5,11.8,10.5c2.6,0,5-0.9,7-2.4v1.4c0,1-0.1,1.4-0.3,2.1l-0.1,0.2c-0.3,1-0.8,1.4-1.3,1.9l-0.1,0.1
			c-1.3,1.2-3.2,1.8-5.7,1.8c-1.6,0-3.1-0.3-4.8-0.8c-1.1-0.4-2.1-0.8-3-1.4l-2.1,4.2c1.2,0.7,2.6,1.3,4.2,1.8
			c2,0.5,4.2,0.8,6.4,0.8c4.3,0,7.6-1.1,9.8-3.2c2.2-2.1,3.3-5.4,3.3-9.8v-9.9C152.8,14.6,150.7,10.9,147.4,8.7z M147.9,21
			c-0.8,3.4-3.9,5.9-7.4,5.9c-1.8,0-3.4-0.6-4.7-1.6c-1.8-1.4-3-3.6-3-6.1c0-4.2,3.4-7.6,7.6-7.6h0c0.8,0,1.5,0.1,2.2,0.3
			c3.1,0.9,5.5,3.9,5.5,7.3C148.1,19.9,148,20.5,147.9,21z"/>
		<path class="st34" d="M153.1,6.8h-5.6c0.5,0.3,1,0.6,1.5,0.9c0.6,0.4,1.2,0.9,1.8,1.4c0.9,0.8,1.7,1.7,2.3,2.6V6.8z"/>
	</g>
</g>
</svg>
