<svg xmlns="http://www.w3.org/2000/svg" xmlns:xlink="http://www.w3.org/1999/xlink" viewBox="0 0 153.05 41.37"><defs><style>.a{fill:url(#a);}.b{fill:url(#b);}.c{fill:url(#c);}.d{fill:none;}.e{clip-path:url(#d);}.f{clip-path:url(#e);}.g{clip-path:url(#g);}.h{mask:url(#h);}.i{fill:url(#i);}.j{clip-path:url(#j);}.k{clip-path:url(#k);}.l{clip-path:url(#l);}.m{opacity:0.69;}.n{clip-path:url(#o);}.o{clip-path:url(#p);}.p{mask:url(#q);}.q{fill:url(#r);}.r{clip-path:url(#s);}.s{mask:url(#t);}.t{fill:url(#u);}.u{clip-path:url(#v);}.v{clip-path:url(#w);}.w{clip-path:url(#x);}.x{fill:#d81927;}.y{fill:#fff;}</style><radialGradient id="a" cx="145" cy="-660.4" r="1" gradientTransform="matrix(254.5, 0, 0, -403.45, -36832.54, -266427.06)" gradientUnits="userSpaceOnUse"><stop offset="0" stop-color="#b3b3b3"/><stop offset="0.19" stop-color="#7e7e7e"/><stop offset="0.38" stop-color="#515151"/><stop offset="0.56" stop-color="#2e2e2e"/><stop offset="0.72" stop-color="#151515"/><stop offset="0.88" stop-color="#050505"/><stop offset="1"/></radialGradient><radialGradient id="b" cx="145" cy="-660.4" r="1" gradientTransform="matrix(175.26, -401.53, -90.55, -137.5, -84895.54, -31943.15)" gradientUnits="userSpaceOnUse"><stop offset="0" stop-color="gray"/><stop offset="0.03" stop-color="#797979"/><stop offset="0.25" stop-color="#4e4e4e"/><stop offset="0.46" stop-color="#2c2c2c"/><stop offset="0.66" stop-color="#141414"/><stop offset="0.85" stop-color="#050505"/><stop offset="1"/></radialGradient><radialGradient id="c" cy="-660.4" gradientTransform="matrix(369.15, 0, 0, -545, -53098.74, -359938.98)" xlink:href="#a"/><clipPath id="d"><rect class="d" x="329.82" y="301.14" width="385.56" height="385.56"/></clipPath><clipPath id="e"><rect class="d" x="70.11" y="12.47" width="679.38" height="731.94"/></clipPath><clipPath id="g"><path class="d" d="M70.11,12.47v403h.27c140.45,0,254.33-180.36,254.5-403Z"/></clipPath><mask id="h" x="70.11" y="12.47" width="254.77" height="402.96" maskUnits="userSpaceOnUse"><rect class="a" x="70.11" y="12.47" width="254.77" height="402.96"/></mask><radialGradient id="i" cx="145" cy="-660.4" r="1" gradientTransform="matrix(254.5, 0, 0, -403.45, -36832.54, -266427.06)" gradientUnits="userSpaceOnUse"><stop offset="0" stop-color="#1644bd"/><stop offset="0.15" stop-color="#1644af"/><stop offset="0.47" stop-color="#164496"/><stop offset="0.76" stop-color="#164486"/><stop offset="1" stop-color="#164481"/></radialGradient><clipPath id="j"><circle class="d" cx="115.2" cy="493.92" r="192.78"/></clipPath><clipPath id="k"><rect class="d" x="-77.58" y="301.14" width="385.56" height="385.56"/></clipPath><clipPath id="l"><rect class="d" x="-337.3" y="12.47" width="679.38" height="731.94"/></clipPath><clipPath id="o"><rect class="d" x="116.26" y="214.37" width="394.62" height="849.07"/></clipPath><clipPath id="p"><path class="d" d="M138.31,1040.44c-50-75.94-12.08-317.27,84.71-539s215.8-340,265.81-264,12.08,317.27-84.72,539-215.79,340-265.8,264"/></clipPath><mask id="q" x="-162.36" y="-250" width="951.86" height="1777.83" maskUnits="userSpaceOnUse"><polygon class="b" points="-162.36 735.73 267.89 -250 789.5 542.09 359.25 1527.82 -162.36 735.73"/></mask><radialGradient id="r" cx="145" cy="-660.4" r="1" gradientTransform="matrix(175.26, -401.53, -90.55, -137.5, -84895.54, -31943.15)" gradientUnits="userSpaceOnUse"><stop offset="0" stop-color="#9b1b43"/><stop offset="1" stop-color="#9b1b43"/></radialGradient><clipPath id="s"><path class="d" d="M59.37,12.47C69.51,254.68,186.78,454,342.09,508.55V12.47Z"/></clipPath><mask id="t" x="59.37" y="12.47" width="282.72" height="496.07" maskUnits="userSpaceOnUse"><rect class="c" x="59.37" y="12.47" width="282.72" height="496.07"/></mask><radialGradient id="u" cx="145" cy="-660.4" gradientTransform="matrix(369.15, 0, 0, -545, -53098.74, -359938.98)" xlink:href="#i"/><clipPath id="v"><circle class="d" cx="522.6" cy="55.48" r="192.78"/></clipPath><clipPath id="w"><rect class="d" x="329.82" y="-137.3" width="385.56" height="385.56"/></clipPath><clipPath id="x"><rect class="d" x="70.11" y="-425.97" width="679.38" height="731.94"/></clipPath></defs><title>1</title><g class="e"><g class="f"><g class="f"><g class="g"><g class="h"><rect class="i" x="70.11" y="12.47" width="254.77" height="402.96"/></g></g></g></g></g><g class="j"><g class="k"><g class="l"><g class="l"><g class="l"><g class="m"><g class="n"><g class="o"><g class="p"><polygon class="q" points="-162.36 735.73 267.89 -250 789.5 542.09 359.25 1527.82 -162.36 735.73"/></g></g></g></g></g><g class="r"><g class="s"><rect class="t" x="59.37" y="12.47" width="282.72" height="496.07"/></g></g></g></g></g></g><polygon class="x" points="51.51 15.65 51.51 22.9 50.5 23.61 38.5 32.01 38.5 23.36 44.32 19.28 38.5 15.21 38.5 6.58 38.41 6.58 38.5 6.54 50.5 14.95 51.51 15.65"/><path class="y" d="M20.85,28.71l.28-.26.09-.1.46-.46a12.58,12.58,0,0,0,3.38-6,12.24,12.24,0,0,0,.26-2.27V8.56l-6.56,3.95v7a6.35,6.35,0,0,1-1.51,3.89,6,6,0,0,1-1.48,1.24,6.1,6.1,0,0,1-8.35-2.08,6.36,6.36,0,0,1-.28-5.3A5.69,5.69,0,0,1,10.36,14h0l.27-.09.12-.05.44-.14.07,0a5.83,5.83,0,0,1,2-.19,3.15,3.15,0,0,1,.43.05,3.37,3.37,0,0,1,.55.12,1.58,1.58,0,0,1,.37.11,2.45,2.45,0,0,1,.43.15,2.67,2.67,0,0,1,.42.2,3.23,3.23,0,0,1,.41.22,5.61,5.61,0,0,1,.65.47l.11.09V7.41a8.86,8.86,0,0,0-2-.63,10.15,10.15,0,0,0-2.56-.19A12.14,12.14,0,0,0,6.19,8.47,13,13,0,0,0,.27,22.15c0,.19.08.38.12.57s.12.44.19.67a12.69,12.69,0,0,0,.91,2.18,3.41,3.41,0,0,0,.17.33l0,0C5.48,32.68,15.13,33.86,20.5,29,20.61,28.9,20.73,28.81,20.85,28.71Z"/><path class="y" d="M22.92,29.06c-.17.19-.33.36-.52.55l-.16.19,0,0c-.15.14-.26.26-.38.36l-.06.05c-.12.12-.24.22-.37.33A14.43,14.43,0,0,1,19.49,32h5.83V25.6A17.4,17.4,0,0,1,22.92,29.06Z"/><path class="y" d="M89.72,22.26c0,.2-.09.4-.13.58s-.11.43-.19.64a12.67,12.67,0,0,1-.92,2.23l-.23.44C86.21,29.75,81.91,32,77,32a12.44,12.44,0,0,1-8.39-3l-.39-.34a2.33,2.33,0,0,1-.28-.26l-.06-.07,0,0-.44-.45a9.85,9.85,0,0,1-2.6-5.51A26.94,26.94,0,0,1,64.6,19V.1l5,3V19.6a7.57,7.57,0,0,0,.18,1.45,7.75,7.75,0,0,0,1.73,3.5,8.17,8.17,0,0,0,1.87,1.56,8,8,0,0,0,4,1.07,7.52,7.52,0,0,0,6.58-3.73,8,8,0,0,0,.37-6.68,7.16,7.16,0,0,0-4.06-4.15L80,12.53h0l-.3-.1-.4-.13-.13,0-.14,0A7.62,7.62,0,0,0,77.1,12h-.53a4.74,4.74,0,0,0-.61.09,3.07,3.07,0,0,0-.63.13,3,3,0,0,0-.49.14,4.61,4.61,0,0,0-.55.2l-.22.08V7.18a7.42,7.42,0,0,1,1.26-.36,10.55,10.55,0,0,1,2-.19h.54a12.12,12.12,0,0,1,5.91,1.89A13.15,13.15,0,0,1,89.72,22.26Z"/><path class="y" d="M89.72,22.26c0,.2-.09.4-.13.58s-.11.43-.19.64a12.67,12.67,0,0,1-.92,2.23l-.23.44C86.21,29.75,81.91,32,77,32a12.44,12.44,0,0,1-8.39-3l-.39-.34a2.33,2.33,0,0,1-.28-.26l-.06-.07,0,0-.44-.45a9.85,9.85,0,0,1-2.6-5.51A26.94,26.94,0,0,1,64.6,19V.1l5,3V19.6a7.57,7.57,0,0,0,.18,1.45,7.75,7.75,0,0,0,1.73,3.5,8.17,8.17,0,0,0,1.87,1.56,8,8,0,0,0,4,1.07,7.52,7.52,0,0,0,6.58-3.73,8,8,0,0,0,.37-6.68,7.16,7.16,0,0,0-4.06-4.15L80,12.53h0l-.3-.1-.4-.13-.13,0-.14,0A7.62,7.62,0,0,0,77.1,12h-.53a4.74,4.74,0,0,0-.61.09,3.07,3.07,0,0,0-.63.13,3,3,0,0,0-.49.14,4.61,4.61,0,0,0-.55.2l-.22.08V7.18a7.42,7.42,0,0,1,1.26-.36,10.55,10.55,0,0,1,2-.19h.54a12.12,12.12,0,0,1,5.91,1.89A13.15,13.15,0,0,1,89.72,22.26Z"/><path class="y" d="M112.85,6.59a12.69,12.69,0,1,0,12.69,12.69A12.7,12.7,0,0,0,112.85,6.59Zm0,20.34a7.65,7.65,0,1,1,7.65-7.65A7.66,7.66,0,0,1,112.85,26.93Z"/><path class="y" d="M92.26,3.34l-.09,28.28H98V.05Z"/><path class="y" d="M127.86,20.74c0,.11,0,.22,0,.34s0,.25.08.37C127.94,21.21,127.89,21,127.86,20.74Z"/><path class="y" d="M127.86,20.74c0,.11,0,.22,0,.34s0,.25.08.37C127.94,21.21,127.89,21,127.86,20.74Z"/><path class="y" d="M147.43,8.7a13,13,0,0,0-3.35-1.57h0a12.67,12.67,0,0,0-16,9.19l-.11.51a11.7,11.7,0,0,0-.24,2.45c0,.16,0,.31,0,.47s0,.33,0,.48a4.46,4.46,0,0,0,.07.51c0,.23.08.47.13.71,0-.12-.06-.25-.08-.37a12.18,12.18,0,0,0,11.77,10.54,11.37,11.37,0,0,0,7-2.39v1.38a5.24,5.24,0,0,1-.33,2.07l-.07.19A4.19,4.19,0,0,1,145,34.76l-.09.11c-1.26,1.23-3.16,1.84-5.67,1.84a15.51,15.51,0,0,1-4.78-.78,12.82,12.82,0,0,1-3-1.36l-2.09,4.18a15.62,15.62,0,0,0,4.2,1.77,25.09,25.09,0,0,0,6.42.8c4.27,0,7.56-1.07,9.79-3.2s3.32-5.4,3.32-9.75V18.5A12.75,12.75,0,0,0,147.43,8.7ZM147.86,21a7.64,7.64,0,1,1-7.44-9.35h0a7.46,7.46,0,0,1,2.18.32,7.66,7.66,0,0,1,5.46,7.32A7,7,0,0,1,147.86,21Z"/><path class="y" d="M153.08,6.81h-5.65a12,12,0,0,1,1.52.88,13.63,13.63,0,0,1,1.8,1.41,14.6,14.6,0,0,1,2.33,2.64Z"/></svg>